<?xml version="1.0" encoding="UTF-8" standalone="no"?>
<!DOCTYPE svg PUBLIC "-//W3C//DTD SVG 1.1//EN" "http://www.w3.org/Graphics/SVG/1.1/DTD/svg11.dtd">
<svg width="100%" height="100%" viewBox="0 0 213 326" version="1.1" xmlns="http://www.w3.org/2000/svg" xmlns:xlink="http://www.w3.org/1999/xlink" xml:space="preserve" xmlns:serif="http://www.serif.com/" style="fill-rule:evenodd;clip-rule:evenodd;stroke-linecap:round;stroke-linejoin:round;stroke-miterlimit:10;">
    <g transform="matrix(1,0,0,1,-1373.25,-653.384)">
        <g>
            <g transform="matrix(-0.206175,-0.978515,-0.978515,0.206175,1461.69,661.559)">
                <ellipse cx="-36.481" cy="-7.687" rx="37.282" ry="37.282" style="fill:none;stroke:#000;stroke-width:10px;"/>
            </g>
            <g transform="matrix(1,0,0,1,1378.25,973.798)">
                <path d="M0,-282.828L3.931,-216.5L65.931,-199.623L81.536,-128.617L32.901,-66.828L76.516,-4.333L43.943,0" style="fill:none;fill-rule:nonzero;stroke:#000;stroke-width:10px;"/>
            </g>
            <g transform="matrix(1,0,0,1,1580.65,918.109)">
                <path d="M0,-117.093L-4.52,-172.782L-75.089,-149.417L-71.923,-80.579L-103.911,-11.616L-51.955,29.39L-72.228,55.689" style="fill:none;fill-rule:nonzero;stroke:#000;stroke-width:10px;"/>
            </g>
            <g transform="matrix(-0.812193,0.583389,0.583389,0.812193,1479.03,723.813)">
                <path d="M-28.358,-10.705C-19.882,-2.228 -6.162,-2.228 2.314,-10.705" style="fill:none;fill-rule:nonzero;stroke:#000;stroke-width:6px;"/>
            </g>
            <g opacity="0.7">
                <g transform="matrix(1,0,0,1,1544.7,807.91)">
                    <path d="M0,5.602C0,9.108 -0.375,12.329 -0.714,15.698C-1.066,19.191 0.12,22.714 -0.591,26.021C-1.33,29.456 -3.057,32.428 -4.178,35.618C-5.343,38.93 -4.972,42.783 -6.544,45.782C-8.169,48.882 -9.388,52.37 -11.441,55.08C-13.54,57.85 -17.792,58.63 -20.332,60.934C-22.877,63.242 -24.376,66.91 -27.357,68.689C-30.266,70.425 -33.483,72.039 -36.8,73.215C-39.954,74.332 -43.211,76.623 -46.729,77.185C-50.006,77.708 -53.792,77.738 -57.38,77.738C-60.909,77.738 -64.697,77.124 -68.247,76.617C-71.744,76.118 -74.889,73.351 -78.339,72.395C-81.752,71.45 -85.83,72.138 -89.133,70.781C-92.419,69.432 -95.702,67.639 -98.816,65.916C-101.935,64.19 -103.271,59.669 -106.154,57.603C-109.061,55.52 -112.022,53.795 -114.625,51.401C-117.264,48.975 -119.299,46.249 -121.56,43.539C-123.859,40.783 -125.084,37.648 -126.922,34.637C-128.789,31.579 -130.457,28.865 -131.777,25.582C-133.106,22.276 -135.863,19.63 -136.562,16.136C-137.254,12.677 -140.248,9.205 -140.248,5.602C-140.248,2.243 -135.825,-0.885 -135.448,-4.202C-135.068,-7.542 -137.091,-11.219 -136.345,-14.468C-135.592,-17.75 -133.381,-20.601 -132.271,-23.74C-131.147,-26.919 -128.496,-29.258 -127.025,-32.239C-125.53,-35.266 -127.496,-40.252 -125.661,-43.021C-123.796,-45.835 -121.85,-48.946 -119.653,-51.437C-117.422,-53.966 -114.274,-55.963 -111.721,-58.099C-109.145,-60.254 -106.566,-62.965 -103.682,-64.659C-100.807,-66.349 -97.269,-67.558 -94.108,-68.728C-91.009,-69.876 -87.481,-70.979 -84.128,-71.569C-80.906,-72.136 -77.228,-69.629 -73.789,-69.629C-70.211,-69.629 -67.049,-67.851 -63.525,-67.239C-60.017,-66.629 -55.464,-70.05 -52.066,-68.89C-48.703,-67.742 -46.422,-63.686 -43.219,-62.054C-40.051,-60.44 -37.566,-57.911 -34.608,-55.877C-31.673,-53.858 -26.368,-54.745 -23.691,-52.365C-21.022,-49.991 -19.451,-46.227 -17.09,-43.546C-14.724,-40.858 -11.324,-38.725 -9.318,-35.779C-7.298,-32.812 -9.189,-27.535 -7.588,-24.359C-5.969,-21.151 -4.271,-18.27 -3.132,-14.903C-1.982,-11.501 -1.82,-8.172 -1.216,-4.664C-0.608,-1.138 0,2.026 0,5.602" style="fill:#04f;fill-rule:nonzero;"/>
                </g>
            </g>
        </g>
    </g>
</svg>
