<?xml version="1.0" encoding="UTF-8" standalone="no"?>
<!DOCTYPE svg PUBLIC "-//W3C//DTD SVG 1.1//EN" "http://www.w3.org/Graphics/SVG/1.1/DTD/svg11.dtd">
<svg width="100%" height="100%" viewBox="0 0 217 322" version="1.1" xmlns="http://www.w3.org/2000/svg" xmlns:xlink="http://www.w3.org/1999/xlink" xml:space="preserve" xmlns:serif="http://www.serif.com/" style="fill-rule:evenodd;clip-rule:evenodd;stroke-linecap:round;stroke-linejoin:round;stroke-miterlimit:10;">
    <g transform="matrix(1,0,0,1,-1077.91,-650.011)">
        <g>
            <g transform="matrix(-0.206175,-0.978515,-0.978515,0.206175,1160.95,658.187)">
                <ellipse cx="-36.481" cy="-7.687" rx="37.282" ry="37.282" style="fill:none;stroke:#000;stroke-width:10px;"/>
            </g>
            <g transform="matrix(1,0,0,1,1135.89,966.093)">
                <path d="M0,-279.414L-52.978,-245.083L7.542,-206.628L23.147,-124.284L-25.489,-62.495L18.468,-8.58L-12.049,0" style="fill:none;fill-rule:nonzero;stroke:#000;stroke-width:10px;"/>
            </g>
            <g transform="matrix(1,0,0,1,1212.47,966.093)">
                <path d="M0,-281.48L62.046,-252.706L-0.331,-206.628L-15.937,-124.284L32.699,-62.495L49.313,0L76.442,-5.661" style="fill:none;fill-rule:nonzero;stroke:#000;stroke-width:10px;"/>
            </g>
            <g transform="matrix(-0.812193,0.583389,0.583389,0.812193,1178.29,720.441)">
                <path d="M-28.358,-10.705C-19.882,-2.228 -6.162,-2.228 2.314,-10.705" style="fill:none;fill-rule:nonzero;stroke:#000;stroke-width:6px;"/>
            </g>
            <g opacity="0.7">
                <g transform="matrix(1,0,0,1,1238.51,741.829)">
                    <path d="M0,128.382C-5.396,133.502 -8.643,129.294 -16.081,129.294C-23.52,129.294 -23.52,127.024 -30.958,127.024C-38.398,127.024 -38.398,127.626 -45.837,127.626C-53.275,127.626 -53.275,129.086 -60.712,129.086C-68.152,129.086 -68.152,124.877 -75.592,124.877C-83.03,124.877 -83.03,126.617 -90.467,126.617C-97.91,126.617 -97.91,126.255 -105.353,126.255C-112.795,126.255 -115.401,132.828 -120.803,127.709C-125.923,122.857 -121.642,120.059 -121.642,113.006C-121.642,105.952 -121.723,105.952 -121.723,98.899C-121.723,91.845 -122.371,91.845 -122.371,84.791C-122.371,77.736 -120.645,77.736 -120.645,70.681C-120.645,63.628 -119.097,63.628 -119.097,56.575C-119.097,49.52 -119.685,49.52 -119.685,42.464C-119.685,35.411 -121.777,35.411 -121.777,28.358C-121.777,21.3 -122.486,21.3 -122.486,14.242C-122.486,7.184 -124.444,5.92 -119.399,0.985C-114.242,-4.061 -113.024,1.643 -105.809,1.643C-98.597,1.643 -98.597,-1.126 -91.385,-1.126C-84.168,-1.126 -84.168,-0.731 -76.951,-0.731C-69.734,-0.731 -69.734,0.39 -62.517,0.39C-54.854,0.39 -54.854,-2.009 -47.19,-2.009C-39.527,-2.009 -39.527,2 -31.863,2C-24.199,2 -24.199,-1.316 -16.534,-1.316C-8.869,-1.316 -6.793,-5.12 -1.153,0.07C4.037,4.846 -0.171,7.179 -0.171,14.233C-0.171,21.286 1.049,21.286 1.049,28.34C1.049,35.394 -1.215,35.394 -1.215,42.448C-1.215,49.503 -2.229,49.503 -2.229,56.558C-2.229,63.611 -3.446,63.611 -3.446,70.664C-3.446,77.719 -0.899,77.719 -0.899,84.774C-0.899,91.827 0.332,91.827 0.332,98.88C0.332,105.938 -4.767,106.624 -3.012,113.46C-0.959,121.462 5.12,123.524 0,128.382" style="fill:#22b27b;fill-rule:nonzero;"/>
                </g>
            </g>
        </g>
    </g>
</svg>
