<?xml version="1.0" encoding="UTF-8" standalone="no"?>
<!DOCTYPE svg PUBLIC "-//W3C//DTD SVG 1.1//EN" "http://www.w3.org/Graphics/SVG/1.1/DTD/svg11.dtd">
<svg width="100%" height="100%" viewBox="0 0 900 1147" version="1.1" xmlns="http://www.w3.org/2000/svg" xmlns:xlink="http://www.w3.org/1999/xlink" xml:space="preserve" xmlns:serif="http://www.serif.com/" style="fill-rule:evenodd;clip-rule:evenodd;stroke-linejoin:round;stroke-miterlimit:2;">
    <g transform="matrix(1,0,0,1,-4830.49,-386.622)">
        <g transform="matrix(1,0,0,1,4320,0)">
            <g transform="matrix(1,0,0,1,1132.87,857.986)">
                <path d="M0,-121.919C0,-219.081 37.836,-310.426 106.541,-379.129L14.306,-471.364C-32.85,-424.21 -69.372,-369.195 -94.249,-307.85C-118.263,-248.63 -130.44,-186.074 -130.44,-121.919C-130.44,-57.764 -118.263,4.792 -94.249,64.013C-76.231,108.445 -52.072,149.536 -22.219,186.745C-68.786,207.867 -119.731,219.005 -172.394,219.005C-225.323,219.005 -276.514,207.753 -323.271,186.423C-293.537,149.299 -269.465,108.317 -251.498,64.013C-227.483,4.792 -215.307,-57.764 -215.307,-121.919C-215.307,-186.074 -227.483,-248.63 -251.498,-307.851C-276.375,-369.196 -312.897,-424.21 -360.053,-471.364L-452.286,-379.129C-383.583,-310.426 -345.746,-219.08 -345.746,-121.919C-345.746,-27.544 -381.45,61.338 -446.458,129.319L-521.84,204.7C-474.684,251.854 -419.671,288.377 -358.325,313.253C-299.105,337.268 -236.549,349.445 -172.394,349.445C-108.239,349.445 -45.683,337.268 13.537,313.253C74.883,288.377 129.896,251.854 177.052,204.7L90.348,117.998C31.929,51.612 0,-32.694 0,-121.919" style="fill-rule:nonzero;"/>
            </g>
            <g transform="matrix(1,0,0,1,960.479,1426.84)">
                <path d="M0,-23.9C-97.162,-23.9 -188.507,-61.737 -257.21,-130.44L-349.446,-38.206C-302.29,8.949 -247.277,45.472 -185.931,70.349C-126.711,94.363 -64.155,106.54 0,106.54C64.155,106.54 126.711,94.363 185.931,70.349C247.277,45.472 302.29,8.949 349.446,-38.206L257.21,-130.44C188.507,-61.737 97.162,-23.9 0,-23.9" style="fill-rule:nonzero;"/>
            </g>
            <g transform="matrix(-1,0,0,1,1322.8,822.786)">
                <path d="M0,-173.437C47.893,-173.437 86.718,-134.612 86.718,-86.719C86.718,-38.825 47.893,0 0,0C-47.893,0 -86.718,-38.825 -86.718,-86.719C-86.718,-134.612 -47.893,-173.437 0,-173.437" style="fill-rule:nonzero;"/>
            </g>
            <g transform="matrix(0,-1,-1,0,597.204,649.349)">
                <path d="M-86.718,-86.719C-38.825,-86.719 0,-47.894 0,-0.001C0,47.892 -38.825,86.718 -86.718,86.718C-134.611,86.718 -173.437,47.892 -173.437,-0.001C-173.437,-47.894 -134.611,-86.719 -86.718,-86.719" style="fill-rule:nonzero;"/>
            </g>
        </g>
    </g>
</svg>
