<?xml version="1.0" encoding="UTF-8" standalone="no"?>
<!DOCTYPE svg PUBLIC "-//W3C//DTD SVG 1.1//EN" "http://www.w3.org/Graphics/SVG/1.1/DTD/svg11.dtd">
<svg width="100%" height="100%" viewBox="0 0 165 326" version="1.1" xmlns="http://www.w3.org/2000/svg" xmlns:xlink="http://www.w3.org/1999/xlink" xml:space="preserve" xmlns:serif="http://www.serif.com/" style="fill-rule:evenodd;clip-rule:evenodd;stroke-linecap:round;stroke-linejoin:round;stroke-miterlimit:10;">
    <g transform="matrix(1,0,0,1,-1668.94,-653.391)">
        <g>
            <g transform="matrix(1,0,0,1,1673.15,973.798)">
                <path d="M1.875,-254.098L5.806,-187.77L65.931,-196.788L61.694,-128.617L13.058,-66.828L56.674,-4.333L24.1,0" style="fill:none;fill-rule:nonzero;stroke:#000;stroke-width:10px;"/>
            </g>
            <g transform="matrix(1,0,0,1,1832.57,973.798)">
                <path d="M-4,-301.993L-7.931,-235.665L-65.931,-196.788L-61.694,-128.617L-13.058,-66.828L-56.674,-4.333L-24.1,0" style="fill:none;fill-rule:nonzero;stroke:#000;stroke-width:10px;"/>
            </g>
            <g opacity="0.7">
                <g transform="matrix(1,0,0,1,1751.79,890.498)">
                    <path d="M-6.818,-145.023C-10.189,-138.744 -9.659,-138.459 -13.03,-132.18C-16.402,-125.9 -15.115,-125.209 -18.487,-118.93C-21.859,-112.651 -25.567,-114.642 -28.938,-108.363C-32.31,-102.084 -30.776,-101.26 -34.148,-94.981C-37.52,-88.701 -37.839,-88.873 -41.211,-82.593C-44.581,-76.316 -43.102,-75.522 -46.473,-69.244C-49.844,-62.965 -49.331,-62.689 -52.702,-56.41C-56.075,-50.129 -56.004,-50.091 -59.376,-43.809C-62.748,-37.53 -62.177,-37.224 -65.549,-30.944C-68.923,-24.661 -70.443,-25.477 -73.817,-19.193C-77.191,-12.91 -85.705,-12.232 -81.888,-6.207C-77.951,0.006 -73.568,-6.265 -66.213,-6.265C-58.856,-6.265 -58.856,-8.357 -51.5,-8.357C-44.144,-8.357 -44.144,-9.066 -36.789,-9.066C-29.433,-9.066 -29.433,-5.618 -22.077,-5.618C-14.721,-5.618 -14.721,-5.302 -7.365,-5.302C-0.008,-5.302 -0.008,-8.071 7.35,-8.071C14.705,-8.071 14.705,-7.676 22.06,-7.676C29.417,-7.676 29.417,-6.555 36.775,-6.555C44.13,-6.555 44.13,-8.954 51.486,-8.954C58.846,-8.954 58.846,-4.945 66.206,-4.945C73.567,-4.945 75.763,-1.379 79.71,-7.592C83.532,-13.606 77.489,-13.06 74.118,-19.338C70.746,-25.617 69.903,-25.164 66.532,-31.443C63.16,-37.723 62.085,-37.146 58.713,-43.426C55.342,-49.704 57.337,-50.776 53.966,-57.055C50.594,-63.334 51.487,-63.813 48.116,-70.093C44.744,-76.372 45.816,-76.948 42.445,-83.228C39.074,-89.505 36.83,-88.3 33.459,-94.578C30.088,-100.857 29.004,-100.275 25.632,-106.554C22.26,-112.835 25.257,-114.445 21.885,-120.726C18.513,-127.006 16.908,-126.144 13.537,-132.423C10.163,-138.707 10.266,-138.543 8.36,-145.416C6.504,-152.105 0.314,-145.017 -6.818,-145.023" style="fill:#ff3f00;fill-rule:nonzero;"/>
                </g>
            </g>
            <g transform="matrix(0.527952,-0.849274,-0.849274,-0.527952,1785.23,679.173)">
                <ellipse cx="-31.663" cy="19.683" rx="37.282" ry="37.282" style="fill:none;stroke:#000;stroke-width:10px;"/>
            </g>
            <g transform="matrix(-0.990083,-0.140481,-0.140481,0.990083,1734.5,711.923)">
                <path d="M-30.015,-5.012C-21.538,3.465 -7.819,3.465 0.658,-5.012" style="fill:none;fill-rule:nonzero;stroke:#000;stroke-width:6px;"/>
            </g>
        </g>
    </g>
</svg>
